{
    "asset" : {
        "generator" : "Khronos glTF Blender I/O v1.8.19",
        "version" : "2.0"
    },
    "scene" : 0,
    "scenes" : [
        {
            "name" : "Scene",
            "nodes" : [
                32
            ]
        }
    ],
    "nodes" : [
        {
            "name" : "spine.006",
            "rotation" : [
                -0.09371194988489151,
                0,
                0,
                0.9955993890762329
            ],
            "scale" : [
                1,
                0.9999999403953552,
                1
            ],
            "translation" : [
                0,
                0.06270123273134232,
                2.0521811805451762e-08
            ]
        },
        {
            "children" : [
                0
            ],
            "name" : "spine.005",
            "rotation" : [
                -0.09485751390457153,
                0,
                0,
                0.9954909682273865
            ],
            "translation" : [
                0,
                0.06616349518299103,
                -3.872054321618634e-08
            ]
        },
        {
            "children" : [
                1
            ],
            "name" : "spine.004",
            "rotation" : [
                0.20173782110214233,
                0,
                0,
                0.9794396758079529
            ],
            "scale" : [
                1,
                1,
                1.0000001192092896
            ],
            "translation" : [
                0,
                0.19257846474647522,
                -9.313225746154785e-10
            ]
        },
        {
            "name" : "hand.L",
            "rotation" : [
                -0.07353904843330383,
                -0.13252469897270203,
                -0.010305364616215229,
                0.9883941411972046
            ],
            "scale" : [
                1,
                1.0000001192092896,
                1
            ],
            "translation" : [
                -1.3175828428302339e-07,
                0.3021690249443054,
                6.280423292537307e-08
            ]
        },
        {
            "children" : [
                3
            ],
            "name" : "forearm.L",
            "rotation" : [
                0.1875881850719452,
                0.002370680682361126,
                -0.011912068352103233,
                0.9821726679801941
            ],
            "scale" : [
                1,
                0.9999999403953552,
                1.0000001192092896
            ],
            "translation" : [
                -1.231876609608662e-07,
                0.29455843567848206,
                1.8170696947095166e-08
            ]
        },
        {
            "children" : [
                4
            ],
            "name" : "upper_arm.L",
            "rotation" : [
                -0.04227985441684723,
                0.7058401107788086,
                -0.38345614075660706,
                0.594107449054718
            ],
            "scale" : [
                0.9999999403953552,
                1,
                1
            ],
            "translation" : [
                0.007791516371071339,
                0.20079092681407928,
                -0.020384958013892174
            ]
        },
        {
            "children" : [
                5
            ],
            "name" : "shoulder.L",
            "rotation" : [
                -0.6051545739173889,
                -0.34586241841316223,
                -0.35613444447517395,
                0.6223627328872681
            ],
            "scale" : [
                1.0000001192092896,
                1.000000238418579,
                0.9999999403953552
            ],
            "translation" : [
                0.018300000578165054,
                0.1372210830450058,
                0.0782509446144104
            ]
        },
        {
            "name" : "hand.R",
            "rotation" : [
                0.07336850464344025,
                -0.03924492001533508,
                0.10108605772256851,
                0.991392195224762
            ],
            "scale" : [
                1.0000001192092896,
                1.0000001192092896,
                0.9999999403953552
            ],
            "translation" : [
                -2.482306058482209e-07,
                0.25374823808670044,
                1.9000163220539434e-08
            ]
        },
        {
            "children" : [
                7
            ],
            "name" : "forearm.R",
            "rotation" : [
                0.10396508127450943,
                -0.005748726427555084,
                0.01052717212587595,
                0.994508683681488
            ],
            "scale" : [
                1,
                1,
                1
            ],
            "translation" : [
                1.5346606208055391e-09,
                0.30975645780563354,
                4.294000177651469e-08
            ]
        },
        {
            "children" : [
                8
            ],
            "name" : "upper_arm.R",
            "rotation" : [
                -0.015338136814534664,
                -0.6971352100372314,
                0.3968040347099304,
                0.5969202518463135
            ],
            "scale" : [
                1.0000001192092896,
                1.000000238418579,
                1
            ],
            "translation" : [
                -0.007791535928845406,
                0.20079095661640167,
                -0.020385125651955605
            ]
        },
        {
            "children" : [
                9
            ],
            "name" : "shoulder.R",
            "rotation" : [
                -0.6051545739173889,
                0.34586241841316223,
                0.35613444447517395,
                0.6223627328872681
            ],
            "scale" : [
                1.0000001192092896,
                1.000000238418579,
                0.9999999403953552
            ],
            "translation" : [
                -0.018300000578165054,
                0.1372210830450058,
                0.0782509446144104
            ]
        },
        {
            "name" : "breast.L",
            "rotation" : [
                3.1346875317694867e-08,
                0.6969360709190369,
                0.7171332240104675,
                3.046403662665398e-08
            ],
            "scale" : [
                1,
                0.9999995827674866,
                0.9999998807907104
            ],
            "translation" : [
                0.11840000748634338,
                -0.004881198517978191,
                -0.04275684803724289
            ]
        },
        {
            "name" : "breast.R",
            "rotation" : [
                3.1346875317694867e-08,
                0.6969360709190369,
                0.7171332240104675,
                3.046403662665398e-08
            ],
            "scale" : [
                1,
                0.9999995827674866,
                0.9999998807907104
            ],
            "translation" : [
                -0.11840000748634338,
                -0.004881198517978191,
                -0.04275684803724289
            ]
        },
        {
            "children" : [
                2,
                6,
                10,
                11,
                12
            ],
            "name" : "spine.003",
            "rotation" : [
                0.0016271488275378942,
                0,
                0,
                0.9999986886978149
            ],
            "translation" : [
                0,
                0.17288750410079956,
                0
            ]
        },
        {
            "children" : [
                13
            ],
            "name" : "spine.002",
            "rotation" : [
                -0.07746415585279465,
                0,
                0,
                0.9969951510429382
            ],
            "scale" : [
                1,
                0.9999999403953552,
                0.9999999403953552
            ],
            "translation" : [
                0,
                0.13663654029369354,
                2.1032741770454777e-08
            ]
        },
        {
            "children" : [
                14
            ],
            "name" : "spine.001",
            "rotation" : [
                -0.0644763931632042,
                0,
                0,
                0.9979192614555359
            ],
            "scale" : [
                1,
                1.0000001192092896,
                1
            ],
            "translation" : [
                0,
                0.15221953392028809,
                -1.4901161193847656e-08
            ]
        },
        {
            "name" : "pelvis.L",
            "rotation" : [
                -0.1524551510810852,
                -0.7933306694030762,
                -0.28550392389297485,
                0.5156272053718567
            ],
            "scale" : [
                1.0000001192092896,
                1.0000001192092896,
                1
            ],
            "translation" : [
                -1.2569787877225735e-08,
                1.9854830668464274e-08,
                3.442701412836868e-08
            ]
        },
        {
            "name" : "pelvis.R",
            "rotation" : [
                -0.1524551510810852,
                0.7933306694030762,
                0.28550392389297485,
                0.5156272053718567
            ],
            "scale" : [
                1.0000001192092896,
                1.0000001192092896,
                1
            ],
            "translation" : [
                1.2569787877225735e-08,
                1.9854830668464274e-08,
                3.442701412836868e-08
            ]
        },
        {
            "name" : "toe.L",
            "rotation" : [
                0.038095034658908844,
                0.9879967570304871,
                -0.13118799030780792,
                0.07211839407682419
            ],
            "scale" : [
                1,
                1,
                0.9999998807907104
            ],
            "translation" : [
                1.4869848463661128e-08,
                0.12680359184741974,
                6.845746192141178e-09
            ]
        },
        {
            "name" : "heel.02.L",
            "rotation" : [
                0.5693089365959167,
                0.7655800580978394,
                -0.17726124823093414,
                0.2415635883808136
            ],
            "scale" : [
                1,
                1.0000001192092896,
                0.9999999403953552
            ],
            "translation" : [
                -0.06662796437740326,
                0.051660627126693726,
                0.046516235917806625
            ]
        },
        {
            "children" : [
                18,
                19
            ],
            "name" : "foot.L",
            "rotation" : [
                -0.5062878131866455,
                -0.11566104739904404,
                -0.05484575405716896,
                0.8528112769126892
            ],
            "scale" : [
                0.9999998807907104,
                1,
                0.9999998807907104
            ],
            "translation" : [
                -1.9850325827519555e-08,
                0.47463467717170715,
                1.563553553296515e-08
            ]
        },
        {
            "children" : [
                20
            ],
            "name" : "shin.L",
            "rotation" : [
                0.03270603343844414,
                0.015355168841779232,
                0.005515569355338812,
                0.9993319511413574
            ],
            "translation" : [
                1.4537935300040772e-08,
                0.5157091021537781,
                4.475548820437325e-09
            ]
        },
        {
            "children" : [
                21
            ],
            "name" : "thigh.L",
            "rotation" : [
                0.9915104508399963,
                0.08716978132724762,
                -0.019029201939702034,
                0.09458619356155396
            ],
            "scale" : [
                0.9999998211860657,
                0.9999999403953552,
                0.9999998211860657
            ],
            "translation" : [
                0.09800002723932266,
                0.07081852853298187,
                0.025942277163267136
            ]
        },
        {
            "name" : "toe.R",
            "rotation" : [
                0.008745640516281128,
                -0.9608104228973389,
                0.2575514316558838,
                0.10214776545763016
            ],
            "scale" : [
                0.9999998211860657,
                1.000000238418579,
                1
            ],
            "translation" : [
                -2.1789734461208354e-09,
                0.1428186595439911,
                -1.6965685745162773e-08
            ]
        },
        {
            "name" : "heel.02.R",
            "rotation" : [
                0.5377214550971985,
                -0.774567723274231,
                0.210222065448761,
                0.2582773268222809
            ],
            "scale" : [
                0.9999999403953552,
                1.000000238418579,
                1.0000001192092896
            ],
            "translation" : [
                0.03771766647696495,
                0.10744819045066833,
                0.05613439902663231
            ]
        },
        {
            "children" : [
                23,
                24
            ],
            "name" : "foot.R",
            "rotation" : [
                -0.4978674054145813,
                0.14096595346927643,
                0.06555824726819992,
                0.8532050251960754
            ],
            "scale" : [
                1,
                1,
                0.9999999403953552
            ],
            "translation" : [
                2.1789963611240637e-08,
                0.4727495014667511,
                -1.6600040453340625e-08
            ]
        },
        {
            "children" : [
                25
            ],
            "name" : "shin.R",
            "rotation" : [
                0.08790654689073563,
                -0.015979578718543053,
                -0.006313543766736984,
                0.9959806203842163
            ],
            "scale" : [
                1,
                0.9999998211860657,
                1
            ],
            "translation" : [
                1.039774311095698e-08,
                0.4960322082042694,
                -1.901537149961996e-09
            ]
        },
        {
            "children" : [
                26
            ],
            "name" : "thigh.R",
            "rotation" : [
                0.9896253347396851,
                -0.08148134499788284,
                0.01727636717259884,
                0.11706439405679703
            ],
            "scale" : [
                1.0000011920928955,
                1,
                1.0000017881393433
            ],
            "translation" : [
                -0.09800003468990326,
                0.07081829011440277,
                0.025942334905266762
            ]
        },
        {
            "children" : [
                15,
                16,
                17,
                22,
                27
            ],
            "name" : "spine",
            "rotation" : [
                0.1258196234703064,
                0,
                0,
                0.9920531511306763
            ],
            "scale" : [
                1,
                0.9999999403953552,
                0.9999998807907104
            ],
            "translation" : [
                0,
                1.0098999738693237,
                -0.0551999993622303
            ]
        },
        {
            "name" : "Bone"
        },
        {
            "name" : "Bone.001"
        },
        {
            "mesh" : 0,
            "name" : "lowman_shoes",
            "skin" : 0
        },
        {
            "children" : [
                31,
                28,
                29,
                30
            ],
            "name" : "metarig",
            "scale" : [
                7.802038669586182,
                7.802038669586182,
                7.802038669586182
            ]
        }
    ],
    "meshes" : [
        {
            "name" : "lowman_shoes.001",
            "primitives" : [
                {
                    "attributes" : {
                        "POSITION" : 0,
                        "NORMAL" : 1,
                        "TEXCOORD_0" : 2,
                        "JOINTS_0" : 3,
                        "WEIGHTS_0" : 4
                    },
                    "indices" : 5
                }
            ]
        }
    ],
    "skins" : [
        {
            "inverseBindMatrices" : 6,
            "joints" : [
                28,
                15,
                14,
                13,
                2,
                1,
                0,
                6,
                5,
                4,
                3,
                10,
                9,
                8,
                7,
                11,
                12,
                16,
                17,
                22,
                21,
                20,
                18,
                19,
                27,
                26,
                25,
                23,
                24,
                29,
                30
            ],
            "name" : "metarig"
        }
    ],
    "animations": [
        {
          "samplers" : [
            {
              "input" : 7,
              "interpolation" : "LINEAR",
              "output" : 8
            },
            {
                "input" : 9,
                "interpolation" : "LINEAR",
                "output" : 10
            }
          ],
          "channels" : [ {
            "sampler" : 0,
            "target" : {
              "node" : 8,
              "path" : "rotation"
            }
          },
          {
            "sampler" : 1,
            "target" : {
              "node" : 4,
              "path" : "rotation"
            }
          }  ]
        }
      ],
    "accessors" : [
        {
            "bufferView" : 0,
            "componentType" : 5126,
            "count" : 15336,
            "max" : [
                6.009702205657959,
                15.53870964050293,
                1.3899855613708496
            ],
            "min" : [
                -6.009702205657959,
                -0.009382948279380798,
                -1.3965752124786377
            ],
            "type" : "VEC3"
        },
        {
            "bufferView" : 1,
            "componentType" : 5126,
            "count" : 15336,
            "type" : "VEC3"
        },
        {
            "bufferView" : 2,
            "componentType" : 5126,
            "count" : 15336,
            "type" : "VEC2"
        },
        {
            "bufferView" : 3,
            "componentType" : 5121,
            "count" : 15336,
            "type" : "VEC4"
        },
        {
            "bufferView" : 4,
            "componentType" : 5126,
            "count" : 15336,
            "type" : "VEC4"
        },
        {
            "bufferView" : 5,
            "componentType" : 5123,
            "count" : 88992,
            "type" : "SCALAR"
        },
        {
            "bufferView" : 6,
            "componentType" : 5126,
            "count" : 31,
            "type" : "MAT4"
        },
        {
          "bufferView" : 7,
          "byteOffset" : 0,
          "componentType" : 5126,
          "count" : 5,
          "type" : "SCALAR",
          "max" : [ 1.0 ],
          "min" : [ 0.0 ]
        },
        {
          "bufferView" : 7,
          "byteOffset" : 20,
          "componentType" : 5126,
          "count" : 5,
          "type" : "VEC4",
          "max" : [ 0.10396508127450943, -0.005748726427555084, 0.01052717212587595, 2.9913921356201172 ],
          "min" : [ 0.10396508127450943, -0.005748726427555084, 0.01052717212587595, 0.991392195224762 ]
        },
        {
          "bufferView" : 8,
          "byteOffset" : 0,
          "componentType" : 5126,
          "count" : 5,
          "type" : "SCALAR",
          "max" : [ 1.0 ],
          "min" : [ 0.0 ]
        },
        {
          "bufferView" : 8,
          "byteOffset" : 20,
          "componentType" : 5126,
          "count" : 5,
          "type" : "VEC4",
          "max" : [ -0.07353904843330383, -0.13252469897270203, -0.010305364616215229, -0.9883941411972046 ],
          "min" : [ -0.07353904843330383, -0.13252469897270203, -0.010305364616215229, -2.1083941411972046 ]
        }
    ],
    "bufferViews" : [
        {
            "buffer" : 0,
            "byteLength" : 184032,
            "byteOffset" : 0
        },
        {
            "buffer" : 0,
            "byteLength" : 184032,
            "byteOffset" : 184032
        },
        {
            "buffer" : 0,
            "byteLength" : 122688,
            "byteOffset" : 368064
        },
        {
            "buffer" : 0,
            "byteLength" : 61344,
            "byteOffset" : 490752
        },
        {
            "buffer" : 0,
            "byteLength" : 245376,
            "byteOffset" : 552096
        },
        {
            "buffer" : 0,
            "byteLength" : 177984,
            "byteOffset" : 797472
        },
        {
            "buffer" : 0,
            "byteLength" : 1984,
            "byteOffset" : 975456
        },
        {
            "buffer" : 1,
            "byteOffset" : 0,
            "byteLength" : 100
        },
        {
            "buffer" : 2,
            "byteOffset" : 0,
            "byteLength" : 100
        }
    ],
    "buffers" : [
        {
            "byteLength" : 977440,
            "uri" : "data:application/octet-stream;base64,"
        },
        {
            "byteLength": 100,
            "uri": "data:application/octet-stream;base64,"
        },
        {
            "byteLength": 100,
            "uri": "data:application/octet-stream;base64,"
        }
    ]
}
