{
    "asset" : {
        "generator" : "Khronos glTF Blender I/O v1.8.19",
        "version" : "2.0"
    },
    "scene" : 0,
    "scenes" : [
        {
            "name" : "Scene",
            "nodes" : [
                3
            ]
        }
    ],
    "nodes" : [
        {
            "name" : "Bone.001",
            "translation" : [
                0,
                1.7562947273254395,
                0
            ]
        },
        {
            "children" : [
                0
            ],
            "name" : "Bone"
        },
        {
            "mesh" : 0,
            "name" : "Cylinder",
            "skin" : 0
        },
        {
            "children" : [
                2,
                1
            ],
            "name" : "Armature"
        }
    ],
    "meshes" : [
        {
            "name" : "Cylinder",
            "primitives" : [
                {
                    "attributes" : {
                        "POSITION" : 0,
                        "NORMAL" : 1,
                        "TEXCOORD_0" : 2,
                        "JOINTS_0" : 3,
                        "WEIGHTS_0" : 4
                    },
                    "indices" : 5
                }
            ]
        }
    ],
    "skins" : [
        {
            "inverseBindMatrices" : 6,
            "joints" : [
                1,
                0
            ],
            "name" : "Armature"
        }
    ],
    "animations": [
        {
          "samplers" : [
            {
              "input" : 7,
              "interpolation" : "LINEAR",
              "output" : 8
            }
          ],
          "channels" : [ {
            "sampler" : 0,
            "target" : {
              "node" : 0,
              "path" : "translation"
            }
          } ]
        }
      ],
    "accessors" : [
        {
            "bufferView" : 0,
            "componentType" : 5126,
            "count" : 3258,
            "max" : [
                1,
                3.2400174140930176,
                1
            ],
            "min" : [
                -1,
                -0.009431302547454834,
                -1
            ],
            "type" : "VEC3"
        },
        {
            "bufferView" : 1,
            "componentType" : 5126,
            "count" : 3258,
            "type" : "VEC3"
        },
        {
            "bufferView" : 2,
            "componentType" : 5126,
            "count" : 3258,
            "type" : "VEC2"
        },
        {
            "bufferView" : 3,
            "componentType" : 5121,
            "count" : 3258,
            "type" : "VEC4"
        },
        {
            "bufferView" : 4,
            "componentType" : 5126,
            "count" : 3258,
            "type" : "VEC4"
        },
        {
            "bufferView" : 5,
            "componentType" : 5123,
            "count" : 6132,
            "type" : "SCALAR"
        },
        {
            "bufferView" : 6,
            "componentType" : 5126,
            "count" : 2,
            "type" : "MAT4"
        },
        {
          "bufferView" : 7,
          "byteOffset" : 0,
          "componentType" : 5126,
          "count" : 5,
          "type" : "SCALAR",
          "max" : [ 1.0 ],
          "min" : [ 0.0 ]
        },
        {
          "bufferView" : 7,
          "byteOffset" : 20,
          "componentType" : 5126,
          "count" : 5,
          "type" : "VEC3",
          "max" : [ 8.0, 0.0, 7.0 ],
          "min" : [ -2.0, 0.0, -7.0 ]
        }
    ],
    "bufferViews" : [
        {
            "buffer" : 0,
            "byteLength" : 39096,
            "byteOffset" : 0
        },
        {
            "buffer" : 0,
            "byteLength" : 39096,
            "byteOffset" : 39096
        },
        {
            "buffer" : 0,
            "byteLength" : 26064,
            "byteOffset" : 78192
        },
        {
            "buffer" : 0,
            "byteLength" : 13032,
            "byteOffset" : 104256
        },
        {
            "buffer" : 0,
            "byteLength" : 52128,
            "byteOffset" : 117288
        },
        {
            "buffer" : 0,
            "byteLength" : 12264,
            "byteOffset" : 169416
        },
        {
            "buffer" : 0,
            "byteLength" : 128,
            "byteOffset" : 181680
        },
        {
            "buffer" : 1,
            "byteOffset" : 0,
            "byteLength" : 80
        }
    ],
    "buffers" : [
        {
            "byteLength" : 181808,
            "uri" : "data:application/octet-stream;base64,"
        },
        {
            "byteLength": 80,
            "uri": "data:application/octet-stream;base64,"
        }
    ]
}
